<mxfile host="app.diagrams.net" modified="2024-05-10T16:58:13.371Z" agent="Mozilla/5.0 (Macintosh; Intel Mac OS X 10_15_7) AppleWebKit/537.36 (KHTML, like Gecko) Chrome/124.0.0.0 Safari/537.36" etag="JclJ4lZ0obavYLX3_7Y0" version="24.3.1" type="github">
  <diagram name="Page-1" id="2QVoYoVnjaSoymT2vRS0">
    <mxGraphModel dx="823" dy="613" grid="1" gridSize="10" guides="1" tooltips="1" connect="1" arrows="1" fold="1" page="1" pageScale="1" pageWidth="850" pageHeight="1100" math="0" shadow="0">
      <root>
        <mxCell id="0" />
        <mxCell id="1" parent="0" />
        <mxCell id="Nv-N1YVaQlPII06hC9yi-1" value="" style="rounded=0;whiteSpace=wrap;html=1;align=center;spacingLeft=0;labelPosition=center;verticalLabelPosition=bottom;verticalAlign=top;horizontal=1;labelBorderColor=default;fontColor=default;" vertex="1" parent="1">
          <mxGeometry x="280" y="465" width="490" height="130" as="geometry" />
        </mxCell>
        <mxCell id="Nv-N1YVaQlPII06hC9yi-2" value="" style="edgeStyle=orthogonalEdgeStyle;rounded=0;orthogonalLoop=1;jettySize=auto;html=1;" edge="1" parent="1" source="Nv-N1YVaQlPII06hC9yi-3" target="Nv-N1YVaQlPII06hC9yi-8">
          <mxGeometry relative="1" as="geometry" />
        </mxCell>
        <mxCell id="Nv-N1YVaQlPII06hC9yi-3" value="红外传感器驱动" style="rounded=0;whiteSpace=wrap;html=1;" vertex="1" parent="1">
          <mxGeometry x="430" y="490" width="120" height="60" as="geometry" />
        </mxCell>
        <mxCell id="Nv-N1YVaQlPII06hC9yi-4" value="&lt;span style=&quot;background-color: initial;&quot;&gt;电机驱动&lt;/span&gt;" style="rounded=0;whiteSpace=wrap;html=1;" vertex="1" parent="1">
          <mxGeometry x="618" y="490" width="120" height="60" as="geometry" />
        </mxCell>
        <mxCell id="Nv-N1YVaQlPII06hC9yi-5" value="Linux + RTOS" style="text;html=1;align=center;verticalAlign=middle;resizable=0;points=[];autosize=1;strokeColor=none;fillColor=none;" vertex="1" parent="1">
          <mxGeometry x="475" y="565" width="100" height="30" as="geometry" />
        </mxCell>
        <mxCell id="Nv-N1YVaQlPII06hC9yi-6" value="" style="endArrow=none;dashed=1;html=1;rounded=0;" edge="1" parent="1">
          <mxGeometry width="50" height="50" relative="1" as="geometry">
            <mxPoint x="90" y="425" as="sourcePoint" />
            <mxPoint x="790" y="425" as="targetPoint" />
          </mxGeometry>
        </mxCell>
        <mxCell id="Nv-N1YVaQlPII06hC9yi-8" value="传感器模块" style="whiteSpace=wrap;html=1;rounded=0;" vertex="1" parent="1">
          <mxGeometry x="430" y="330" width="120" height="60" as="geometry" />
        </mxCell>
        <mxCell id="Nv-N1YVaQlPII06hC9yi-9" value="运动&lt;span style=&quot;background-color: initial;&quot;&gt;控制模块&lt;/span&gt;" style="whiteSpace=wrap;html=1;rounded=0;align=left;spacingRight=11;spacingLeft=10;" vertex="1" parent="1">
          <mxGeometry x="623" y="230" width="167" height="60" as="geometry" />
        </mxCell>
        <mxCell id="Nv-N1YVaQlPII06hC9yi-10" value="" style="edgeStyle=orthogonalEdgeStyle;rounded=0;orthogonalLoop=1;jettySize=auto;html=1;exitX=0.5;exitY=1;exitDx=0;exitDy=0;" edge="1" parent="1">
          <mxGeometry relative="1" as="geometry">
            <mxPoint x="730" y="290" as="sourcePoint" />
            <mxPoint x="701.5" y="490" as="targetPoint" />
          </mxGeometry>
        </mxCell>
        <mxCell id="Nv-N1YVaQlPII06hC9yi-11" value="" style="edgeStyle=orthogonalEdgeStyle;rounded=0;orthogonalLoop=1;jettySize=auto;html=1;" edge="1" parent="1" source="Nv-N1YVaQlPII06hC9yi-12" target="Nv-N1YVaQlPII06hC9yi-9">
          <mxGeometry relative="1" as="geometry" />
        </mxCell>
        <mxCell id="Nv-N1YVaQlPII06hC9yi-12" value="路径规划模块" style="rounded=0;whiteSpace=wrap;html=1;align=right;" vertex="1" parent="1">
          <mxGeometry x="431" y="230" width="150" height="60" as="geometry" />
        </mxCell>
        <mxCell id="Nv-N1YVaQlPII06hC9yi-14" value="用户输入模块" style="rounded=0;whiteSpace=wrap;html=1;" vertex="1" parent="1">
          <mxGeometry x="260" y="230" width="120" height="60" as="geometry" />
        </mxCell>
        <mxCell id="Nv-N1YVaQlPII06hC9yi-15" value="转向" style="text;html=1;align=center;verticalAlign=middle;resizable=0;points=[];autosize=1;strokeColor=none;fillColor=none;" vertex="1" parent="1">
          <mxGeometry x="580" y="230" width="50" height="30" as="geometry" />
        </mxCell>
        <mxCell id="Nv-N1YVaQlPII06hC9yi-16" value="前方存在障碍物" style="text;html=1;align=center;verticalAlign=middle;resizable=0;points=[];autosize=1;strokeColor=none;fillColor=none;" vertex="1" parent="1">
          <mxGeometry x="465" y="295" width="110" height="30" as="geometry" />
        </mxCell>
        <mxCell id="Nv-N1YVaQlPII06hC9yi-17" value="前进" style="text;html=1;align=center;verticalAlign=middle;resizable=0;points=[];autosize=1;strokeColor=none;fillColor=none;" vertex="1" parent="1">
          <mxGeometry x="380" y="230" width="50" height="30" as="geometry" />
        </mxCell>
        <mxCell id="Nv-N1YVaQlPII06hC9yi-30" value="" style="edgeStyle=orthogonalEdgeStyle;rounded=0;orthogonalLoop=1;jettySize=auto;html=1;" edge="1" parent="1" source="Nv-N1YVaQlPII06hC9yi-8" target="Nv-N1YVaQlPII06hC9yi-18">
          <mxGeometry relative="1" as="geometry">
            <Array as="points">
              <mxPoint x="465" y="320" />
              <mxPoint x="465" y="320" />
            </Array>
          </mxGeometry>
        </mxCell>
        <mxCell id="Nv-N1YVaQlPII06hC9yi-33" style="edgeStyle=orthogonalEdgeStyle;rounded=0;orthogonalLoop=1;jettySize=auto;html=1;" edge="1" parent="1" target="Nv-N1YVaQlPII06hC9yi-18">
          <mxGeometry relative="1" as="geometry">
            <mxPoint x="380" y="263" as="sourcePoint" />
          </mxGeometry>
        </mxCell>
        <mxCell id="Nv-N1YVaQlPII06hC9yi-18" value="避障算法" style="rounded=0;whiteSpace=wrap;html=1;" vertex="1" parent="1">
          <mxGeometry x="440" y="246" width="50" height="34" as="geometry" />
        </mxCell>
        <mxCell id="Nv-N1YVaQlPII06hC9yi-19" value="系统层（主控制器）" style="text;html=1;align=center;verticalAlign=middle;resizable=0;points=[];autosize=1;strokeColor=none;fillColor=none;fontSize=20;" vertex="1" parent="1">
          <mxGeometry x="80" y="500" width="200" height="40" as="geometry" />
        </mxCell>
        <mxCell id="Nv-N1YVaQlPII06hC9yi-20" value="控制软件" style="text;html=1;align=center;verticalAlign=middle;resizable=0;points=[];autosize=1;strokeColor=none;fillColor=none;fontSize=20;" vertex="1" parent="1">
          <mxGeometry x="130" y="290" width="100" height="40" as="geometry" />
        </mxCell>
        <mxCell id="Nv-N1YVaQlPII06hC9yi-21" value="" style="endArrow=none;dashed=1;html=1;rounded=0;" edge="1" parent="1">
          <mxGeometry width="50" height="50" relative="1" as="geometry">
            <mxPoint x="90" y="197" as="sourcePoint" />
            <mxPoint x="790" y="197" as="targetPoint" />
          </mxGeometry>
        </mxCell>
        <mxCell id="Nv-N1YVaQlPII06hC9yi-22" value="双电机施加不同电压" style="text;html=1;align=center;verticalAlign=middle;resizable=0;points=[];autosize=1;strokeColor=none;fillColor=none;" vertex="1" parent="1">
          <mxGeometry x="704" y="346" width="130" height="30" as="geometry" />
        </mxCell>
        <mxCell id="Nv-N1YVaQlPII06hC9yi-25" value="状态机" style="whiteSpace=wrap;html=1;" vertex="1" parent="1">
          <mxGeometry x="720" y="242" width="60" height="40" as="geometry" />
        </mxCell>
        <mxCell id="Nv-N1YVaQlPII06hC9yi-28" value="读取红外模拟输出电压" style="text;html=1;align=center;verticalAlign=middle;resizable=0;points=[];autosize=1;strokeColor=none;fillColor=none;" vertex="1" parent="1">
          <mxGeometry x="490" y="428" width="140" height="30" as="geometry" />
        </mxCell>
      </root>
    </mxGraphModel>
  </diagram>
</mxfile>
